<?xml version="1.0" standalone="no"?>
<!DOCTYPE svg PUBLIC "-//W3C//DTD SVG 20010904//EN"
 "http://www.w3.org/TR/2001/REC-SVG-20010904/DTD/svg10.dtd">
<svg version="1.0" xmlns="http://www.w3.org/2000/svg"
 width="512.000000pt" height="512.000000pt" viewBox="0 0 512.000000 512.000000"
 preserveAspectRatio="xMidYMid meet">
<metadata>
Created by potrace 1.14, written by Peter Selinger 2001-2017
</metadata>
<g transform="translate(0.000000,512.000000) scale(0.100000,-0.100000)"
fill="#000000" stroke="none">
<path d="M394 5105 c-189 -41 -339 -193 -380 -384 -21 -99 -21 -4223 0 -4322
41 -193 192 -344 385 -385 99 -21 4223 -21 4322 0 193 41 344 192 385 385 21
99 21 4223 0 4322 -41 193 -192 344 -385 385 -95 20 -4234 19 -4327 -1z m1382
-1696 c184 -25 314 -89 439 -214 131 -132 204 -297 226 -518 12 -119 1 -261
-27 -371 -61 -234 -212 -417 -420 -509 -118 -52 -176 -62 -354 -62 -193 0
-246 11 -388 81 -291 143 -449 470 -412 855 13 139 34 218 85 324 148 309 473
467 851 414z m1898 -15 c298 -57 486 -255 531 -562 l7 -42 -213 2 -212 3 -14
49 c-41 139 -145 218 -289 218 -163 0 -278 -104 -329 -297 -25 -95 -23 -290 5
-393 39 -143 125 -244 234 -273 62 -17 157 -12 208 10 88 37 156 121 173 214
l7 37 215 0 214 0 -6 -47 c-37 -278 -214 -479 -491 -555 -113 -31 -352 -30
-469 1 -275 74 -461 266 -536 556 -21 78 -24 113 -24 260 0 145 4 183 23 255
61 228 202 409 397 507 140 71 373 94 569 57z"/>
<path d="M1553 3056 c-23 -8 -57 -23 -77 -35 -204 -126 -239 -619 -61 -837
105 -128 330 -134 441 -12 79 88 124 233 124 403 0 246 -93 431 -241 478 -60
20 -128 21 -186 3z"/>
</g>
</svg>
